<?xml version="1.0" encoding="UTF-8"?>
<svg width="54px" height="54px" viewBox="0 0 54 54" version="1.1" xmlns="http://www.w3.org/2000/svg" xmlns:xlink="http://www.w3.org/1999/xlink">
    <!-- Generator: Sketch 47 (45396) - http://www.bohemiancoding.com/sketch -->
    <title>icon-bottom-home-checked</title>
    <desc>Created with Sketch.</desc>
    <defs></defs>
    <g id="Page-1" stroke="none" stroke-width="1" fill="none" fill-rule="evenodd">
        <g id="首页" transform="translate(-98.000000, -1246.000000)">
            <g id="Group-11" transform="translate(0.000000, 1236.000000)">
                <g id="Group-2" transform="translate(98.000000, 10.000000)">
                    <g id="Group-12">
                        <g id="icon-bottom-home-checked" transform="translate(5.000000, 6.000000)">
                            <path d="M39.5813,14.5626 L22.9013,0.8006 C21.5853,-0.2674 21.5853,-0.2674 20.2653,0.8066 L4.5163,13.7996 L3.3823,14.6596" id="Fill-1" fill="#FBD959"></path>
                            <g id="Group-6" transform="translate(4.000000, 13.902900)">
                                <path d="M35.1145,0.5493 L35.1145,22.8113 C35.1145,25.6773 32.7915,28.0003 29.9265,28.0003 L5.8575,28.0003 C2.9915,28.0003 0.6685,25.6773 0.6685,22.8113 L0.6685,0.6733" id="Fill-3" fill="#FBD959"></path>
                                <path d="M35.1145,0.5493 L35.1145,22.8113 C35.1145,25.6773 32.7915,28.0003 29.9265,28.0003 L5.8575,28.0003 C2.9915,28.0003 0.6685,25.6773 0.6685,22.8113 L0.6685,0.6733" id="Stroke-5" stroke="#333333" stroke-width="2" stroke-linecap="round" stroke-linejoin="round"></path>
                            </g>
                            <g id="Group-10" transform="translate(15.000000, 25.902900)">
                                <path d="M0.8337,15.6225 L0.8337,3.2725 C0.8337,1.8405 1.9957,0.6795 3.4287,0.6795 L10.3547,0.6795 C11.7877,0.6795 12.9497,1.8405 12.9497,3.2725 L12.9497,15.6225" id="Fill-7" fill="#FBD959"></path>
                                <path d="M0.8337,15.6225 L0.8337,3.2725 C0.8337,1.8405 1.9957,0.6795 3.4287,0.6795 L10.3547,0.6795 C11.7877,0.6795 12.9497,1.8405 12.9497,3.2725 L12.9497,15.6225" id="Stroke-9" stroke="#333333" stroke-width="2" stroke-linecap="round" stroke-linejoin="round"></path>
                            </g>
                            <path d="M43.1716,17.5245 L22.9016,0.8005 C21.5856,-0.2675 21.5856,-0.2675 20.2646,0.8065 L0.0006,17.5245" id="Stroke-11" stroke="#333333" stroke-width="2" stroke-linecap="round" stroke-linejoin="round"></path>
                        </g>
                    </g>
                </g>
            </g>
        </g>
    </g>
</svg>