<?xml version="1.0" encoding="UTF-8"?>
<svg width="54px" height="54px" viewBox="0 0 54 54" version="1.1" xmlns="http://www.w3.org/2000/svg" xmlns:xlink="http://www.w3.org/1999/xlink">
    <!-- Generator: Sketch 47 (45396) - http://www.bohemiancoding.com/sketch -->
    <title>icon-bottom-journey-unchecked</title>
    <desc>Created with Sketch.</desc>
    <defs></defs>
    <g id="Page-1" stroke="none" stroke-width="1" fill="none" fill-rule="evenodd">
        <g id="首页" transform="translate(-348.000000, -1246.000000)">
            <g id="Group-9-Copy-2" transform="translate(36.000000, 1200.000000)" font-size="24" font-family="PingFangSC-Regular, PingFang SC" line-spacing="36" fill="#808080" font-weight="normal">
                <text id="中华民族的发祥地之一…">
                    <tspan x="300" y="74">中华民族的发祥地之一…</tspan>
                </text>
            </g>
            <g id="Group-11" transform="translate(0.000000, 1236.000000)">
                <rect id="Rectangle" stroke="#CAC9CF" x="-0.5" y="-0.5" width="751" height="99"></rect>
                <g id="底部菜单栏-copy-2" transform="translate(250.000000, 0.000000)" fill="#FFFFFF" fill-opacity="0.8">
                    <g id="Group-4">
                        <rect id="Background" x="0" y="0" width="250" height="98"></rect>
                    </g>
                </g>
                <g id="Group-2-Copy" transform="translate(348.000000, 10.000000)" stroke-linecap="round" stroke="#424242" stroke-width="2" stroke-linejoin="round">
                    <g id="Group-13">
                        <g id="icon-bottom-journey-unchecked" transform="translate(5.000000, 5.000000)">
                            <path d="M43.7832,21.8916 C43.7832,33.9826 33.9822,43.7836 21.8912,43.7836 C9.8012,43.7836 0.0002,33.9826 0.0002,21.8916 C0.0002,9.8006 9.8012,-0.0004 21.8912,-0.0004 C33.9822,-0.0004 43.7832,9.8006 43.7832,21.8916 Z" id="Stroke-1"></path>
                            <path d="M18.2129,18.0146 L11.4299,31.8636 C11.2599,32.2096 11.6249,32.5756 11.9719,32.4056 L25.8199,25.6216 L32.6039,11.7746 C32.7739,11.4266 32.4079,11.0616 32.0609,11.2316 L18.2129,18.0146 Z" id="Stroke-3"></path>
                            <path d="M23.6133,21.8916 C23.6133,22.8426 22.8423,23.6136 21.8913,23.6136 C20.9403,23.6136 20.1703,22.8426 20.1703,21.8916 C20.1703,20.9406 20.9403,20.1696 21.8913,20.1696 C22.8423,20.1696 23.6133,20.9406 23.6133,21.8916 Z" id="Stroke-5"></path>
                        </g>
                    </g>
                </g>
            </g>
        </g>
    </g>
</svg>